name rise49.25peak52.1432fall72.8391.mot
datacolumns 19
datarows 11
range 21.41825200000000 21.43491700000000
endheader
time	ground_force1_vx	ground_force1_vy	ground_force1_vz	ground_force1_px	ground_force1_py	ground_force1_pz	ground_force2_vx	ground_force2_vy	ground_force2_vz	ground_force2_px	ground_force2_py	ground_force2_pz	ground_torque1_x	ground_torque1_y	ground_torque1_z	ground_torque2_x	ground_torque2_y	ground_torque2_z	
21.41825200000000	-8.81661300000000	46.31469700000000	-8.98509100000000	0.31790900000000	0.00000000000000	0.09864600000000	-44.57757400000000	792.69810199999995	-58.18895500000000	0.13566200000000	0.00000000000000	-0.08468500000000	0.00000000000000	-5.46987200000000	0.00000000000000	0.00000000000000	-22.46895600000000	0.00000000000000	
21.41991700000000	-9.52253100000000	52.91971300000000	-9.86477100000000	0.32388900000000	0.00000000000000	0.09947300000000	-45.24248300000000	790.45505300000002	-57.82101500000000	0.13503900000000	0.00000000000000	-0.08455200000000	0.00000000000000	-6.08250500000000	0.00000000000000	0.00000000000000	-22.39422100000000	0.00000000000000	
21.42158600000000	-10.07287400000000	59.45432100000000	-10.62620100000000	0.32942400000000	0.00000000000000	0.10024100000000	-45.92601300000000	788.09880499999997	-57.43021100000000	0.13442400000000	0.00000000000000	-0.08441500000000	0.00000000000000	-6.63461000000000	0.00000000000000	0.00000000000000	-22.31990000000000	0.00000000000000	
21.42324600000000	-10.45393000000000	65.85287900000000	-11.25529200000000	0.33455800000000	0.00000000000000	0.10095900000000	-46.62769900000000	785.62742500000002	-57.01649200000000	0.13381600000000	0.00000000000000	-0.08427300000000	0.00000000000000	-7.11562000000000	0.00000000000000	0.00000000000000	-22.24596600000000	0.00000000000000	
21.42491300000000	-10.66022900000000	72.07533400000000	-11.74531100000000	0.33933000000000	0.00000000000000	0.10163300000000	-47.34698400000000	783.03891099999998	-56.57983500000000	0.13321400000000	0.00000000000000	-0.08412800000000	0.00000000000000	-7.51947500000000	0.00000000000000	0.00000000000000	-22.17237800000000	0.00000000000000	
21.42658300000000	-10.69383200000000	78.10664500000000	-12.09633800000000	0.34377200000000	0.00000000000000	0.10226900000000	-48.08321500000000	780.33119399999998	-56.12024300000000	0.13261700000000	0.00000000000000	-0.08397800000000	0.00000000000000	-7.84443800000000	0.00000000000000	0.00000000000000	-22.09907900000000	0.00000000000000	
21.42825200000000	-10.56313300000000	83.95423000000000	-12.31426800000000	0.34791100000000	0.00000000000000	0.10287100000000	-48.83564300000000	777.50214100000005	-55.63774800000000	0.13202500000000	0.00000000000000	-0.08382400000000	0.00000000000000	-8.09258800000000	0.00000000000000	0.00000000000000	-22.02600100000000	0.00000000000000	
21.42991700000000	-10.28134900000000	89.64402600000000	-12.40949500000000	0.35177100000000	0.00000000000000	0.10344400000000	-49.60342100000000	774.54955800000005	-55.13241000000000	0.13143700000000	0.00000000000000	-0.08366700000000	0.00000000000000	-8.26907200000000	0.00000000000000	0.00000000000000	-21.95305800000000	0.00000000000000	
21.43158200000000	-9.86487800000000	95.21569200000000	-12.39546800000000	0.35537300000000	0.00000000000000	0.10399100000000	-50.38560400000000	771.47118799999998	-54.60432000000000	0.13085300000000	0.00000000000000	-0.08350600000000	0.00000000000000	-8.38124100000000	0.00000000000000	0.00000000000000	-21.88015300000000	0.00000000000000	
21.43324800000000	-9.33168700000000	100.71753500000000	-12.28723900000000	0.35873600000000	0.00000000000000	0.10451500000000	-51.18114700000000	768.26472500000000	-54.05359900000000	0.13027200000000	0.00000000000000	-0.08334200000000	0.00000000000000	-8.43774300000000	0.00000000000000	0.00000000000000	-21.80717400000000	0.00000000000000	
21.43491700000000	-8.69985100000000	106.20159700000001	-12.10014100000000	0.36187600000000	0.00000000000000	0.10501800000000	-51.98890300000000	764.92780800000003	-53.48040300000000	0.12969300000000	0.00000000000000	-0.08317400000000	0.00000000000000	-8.44767000000000	0.00000000000000	0.00000000000000	-21.73399500000000	0.00000000000000	
